<?xml version="1.0" encoding="UTF-8" standalone="no"?>
<!DOCTYPE svg PUBLIC "-//W3C//DTD SVG 1.1//EN"
 "http://www.w3.org/Graphics/SVG/1.1/DTD/svg11.dtd">
<!-- Generated by graphviz version 2.47.0 (20210316.0004)
 -->
<!-- Title: dependencies Pages: 1 -->
<svg width="504pt" height="284pt"
 viewBox="0.00 0.00 504.00 284.00" xmlns="http://www.w3.org/2000/svg" xmlns:xlink="http://www.w3.org/1999/xlink">
<g id="graph0" class="graph" transform="scale(1 1) rotate(0) translate(4 280)">
<title>dependencies</title>
<polygon fill="white" stroke="transparent" points="-4,4 -4,-280 500,-280 500,4 -4,4"/>
<text text-anchor="start" x="227.01" y="-42.4" font-family="Times-12" font-weight="bold" font-size="14.00">Legend</text>
<polygon fill="#ffffb3" stroke="transparent" points="14,-10 14,-30 34,-30 34,-10 14,-10"/>
<text text-anchor="start" x="37.63" y="-15.4" font-family="Times-12" font-size="14.00"> &#160;Declarations</text>
<polygon fill="#8dd3c7" stroke="transparent" points="127,-10 127,-30 147,-30 147,-10 127,-10"/>
<text text-anchor="start" x="150.73" y="-15.4" font-family="Times-12" font-size="14.00"> &#160;Module</text>
<polygon fill="#80b1d3" stroke="transparent" points="213,-10 213,-30 233,-30 233,-10 213,-10"/>
<text text-anchor="start" x="236.78" y="-15.4" font-family="Times-12" font-size="14.00"> &#160;Bootstrap</text>
<polygon fill="#fdb462" stroke="transparent" points="310,-10 310,-30 330,-30 330,-10 310,-10"/>
<text text-anchor="start" x="333.67" y="-15.4" font-family="Times-12" font-size="14.00"> &#160;Providers</text>
<polygon fill="#fb8072" stroke="transparent" points="406,-10 406,-30 426,-30 426,-10 406,-10"/>
<text text-anchor="start" x="429.73" y="-15.4" font-family="Times-12" font-size="14.00"> &#160;Exports</text>
<g id="clust1" class="cluster">
<title>cluster_AdminModule</title>
<polygon fill="none" stroke="black" stroke-dasharray="1,5" points="81,-70 81,-268 415,-268 415,-70 81,-70"/>
</g>
<g id="clust3" class="cluster">
<title>cluster_AdminModule_imports</title>
<polygon fill="none" stroke="black" points="283,-78 283,-130 407,-130 407,-78 283,-78"/>
</g>
<g id="clust6" class="cluster">
<title>cluster_AdminModule_providers</title>
<polygon fill="none" stroke="black" points="89,-78 89,-130 275,-130 275,-78 89,-78"/>
</g>
<g id="clust4" class="cluster">
<title>cluster_AdminModule_exports</title>
<polygon fill="none" stroke="black" points="188,-208 188,-260 330,-260 330,-208 188,-208"/>
</g>
<!-- ProductsModule -->
<g id="node1" class="node">
<title>ProductsModule</title>
<polygon fill="#8dd3c7" stroke="black" points="399.04,-122 396.04,-126 375.04,-126 372.04,-122 290.96,-122 290.96,-86 399.04,-86 399.04,-122"/>
<text text-anchor="middle" x="345" y="-99.8" font-family="Times,serif" font-size="14.00">ProductsModule</text>
</g>
<!-- AdminModule -->
<g id="node2" class="node">
<title>AdminModule</title>
<polygon fill="#8dd3c7" stroke="black" points="308.44,-187 305.44,-191 284.44,-191 281.44,-187 209.56,-187 209.56,-151 308.44,-151 308.44,-187"/>
<text text-anchor="middle" x="259" y="-164.8" font-family="Times,serif" font-size="14.00">AdminModule</text>
</g>
<!-- ProductsModule&#45;&gt;AdminModule -->
<g id="edge1" class="edge">
<title>ProductsModule&#45;&gt;AdminModule</title>
<path fill="none" stroke="black" d="M299.47,-122.11C299.47,-122.11 299.47,-140.99 299.47,-140.99"/>
<polygon fill="black" stroke="black" points="295.97,-140.99 299.47,-150.99 302.97,-140.99 295.97,-140.99"/>
</g>
<!-- AdminUserService  -->
<g id="node3" class="node">
<title>AdminUserService </title>
<polygon fill="#fb8072" stroke="black" points="322.29,-252 195.71,-252 195.71,-216 322.29,-216 322.29,-252"/>
<text text-anchor="middle" x="259" y="-229.8" font-family="Times,serif" font-size="14.00">AdminUserService </text>
</g>
<!-- AdminModule&#45;&gt;AdminUserService  -->
<g id="edge2" class="edge">
<title>AdminModule&#45;&gt;AdminUserService </title>
<path fill="none" stroke="black" stroke-dasharray="5,2" d="M259,-187.11C259,-187.11 259,-205.99 259,-205.99"/>
<polygon fill="black" stroke="black" points="255.5,-205.99 259,-215.99 262.5,-205.99 255.5,-205.99"/>
</g>
<!-- AdminUserService -->
<g id="node4" class="node">
<title>AdminUserService</title>
<ellipse fill="#fdb462" stroke="black" cx="182" cy="-104" rx="85.09" ry="18"/>
<text text-anchor="middle" x="182" y="-99.8" font-family="Times,serif" font-size="14.00">AdminUserService</text>
</g>
<!-- AdminUserService&#45;&gt;AdminModule -->
<g id="edge3" class="edge">
<title>AdminUserService&#45;&gt;AdminModule</title>
<path fill="none" stroke="black" d="M238.41,-117.78C238.41,-117.78 238.41,-140.55 238.41,-140.55"/>
<polygon fill="black" stroke="black" points="234.91,-140.55 238.41,-150.55 241.91,-140.55 234.91,-140.55"/>
</g>
</g>
</svg>
